<svg width="129" height="10" viewBox="0 0 129 10" fill="none" xmlns="http://www.w3.org/2000/svg">
<path fill-rule="evenodd" clip-rule="evenodd" d="M7.78644 0.28833V5.00145L13.0493 9.92881H15.7952V5.21569L10.3035 0.28833H7.78644Z" fill="black"/>
<path fill-rule="evenodd" clip-rule="evenodd" d="M0 0.0740509V5.00141L5.2629 9.92877H7.77994V5.00141L2.51704 0.0740509H0Z" fill="black"/>
<path fill-rule="evenodd" clip-rule="evenodd" d="M15.7894 2.64468C15.7894 1.14505 16.9335 0.0738831 18.3064 0.0738831C19.9082 0.0738831 21.0523 1.14505 21.0523 2.64468C21.0523 4.14431 19.9082 5.21547 18.3064 5.21547H15.7894V2.64468Z" fill="black"/>
<path d="M38.4242 1.88858C38.2167 1.69489 38.1138 1.46275 38.1138 1.1899C38.1138 0.917235 38.2167 0.681916 38.4242 0.484037C38.6302 0.286341 38.8792 0.187332 39.1698 0.187332C39.471 0.187332 39.7246 0.284177 39.9306 0.477866C40.1381 0.671417 40.241 0.908854 40.241 1.1899C40.241 1.46275 40.1381 1.69489 39.9306 1.88858C39.7246 2.08232 39.471 2.17902 39.1698 2.17902C38.8792 2.17902 38.6302 2.08232 38.4242 1.88858ZM39.9874 9.86585H38.3673V3.44509H39.9874V9.86585Z" fill="black"/>
<path d="M43.7358 0.251221H42.1047V9.79752H43.7358V0.251221Z" fill="black"/>
<path d="M47.4848 0.251221H45.8506V9.79752H47.4848V0.251221Z" fill="black"/>
<path d="M51.3268 0.251221H49.6942V9.79752H51.3268V0.251221Z" fill="black"/>
<path d="M53.5395 2.98421C54.5724 2.98421 55.4255 3.30495 56.0956 3.94621C56.7673 4.58861 57.1025 5.40182 57.1025 6.38574C57.1025 7.37067 56.7673 8.18591 56.0956 8.83246C55.4255 9.47791 54.5724 9.80169 53.5395 9.80169C52.5173 9.80169 51.6689 9.47791 50.9971 8.83246C50.3254 8.18591 49.9904 7.37067 49.9904 6.38574C49.9904 5.40182 50.3254 4.58861 50.9971 3.94621C51.6689 3.30495 52.5173 2.98421 53.5395 2.98421ZM52.173 7.88902C52.5496 8.24937 53.0046 8.42952 53.5395 8.42952C54.0744 8.42952 54.5278 8.24937 54.8983 7.88902C55.2702 7.52881 55.4547 7.02801 55.4547 6.38574C55.4547 5.75268 55.2702 5.25925 54.8983 4.90305C54.5278 4.54703 54.0744 4.36886 53.5395 4.36886C53.0046 4.36886 52.5511 4.54703 52.1807 4.90305C51.8103 5.25925 51.6243 5.75268 51.6243 6.38574C51.6243 7.0188 51.8072 7.52061 52.173 7.88902Z" fill="black"/>
<path d="M62.7939 7.56046L64.1758 7.96958C63.9774 8.55875 63.6101 9.04413 63.0691 9.42635C62.5295 9.8093 61.8655 9.99981 61.0769 9.99981C60.0994 9.99981 59.2709 9.68856 58.5915 9.0637C57.9106 8.44031 57.5693 7.60421 57.5693 6.55886C57.5693 5.57379 57.8998 4.76487 58.5623 4.13199C59.2248 3.4988 60.0071 3.18335 60.9079 3.18335C61.9592 3.18335 62.7816 3.48424 63.3734 4.08608C63.9636 4.68787 64.2603 5.49896 64.2603 6.51926C64.2603 6.79096 64.2449 6.95444 64.2172 7.00638H59.2033C59.2217 7.49065 59.4124 7.89042 59.7735 8.20688C60.1363 8.52334 60.5697 8.6818 61.0769 8.6818C61.9593 8.6818 62.5326 8.30805 62.7939 7.56046ZM59.2463 5.8862H62.6125C62.5926 5.48128 62.4403 5.14281 62.1545 4.87111C61.8686 4.59839 61.4567 4.46195 60.9218 4.46195C60.4329 4.46195 60.0394 4.60457 59.7381 4.89082C59.4385 5.17619 59.274 5.50817 59.2463 5.8862Z" fill="black"/>
<path d="M30.4352 3.44458H32.126L33.7461 7.88833L35.111 3.44458H36.7741L34.5761 9.86533H32.9421L31.2375 5.25106L29.5759 9.86533H27.9005L25.6748 3.44458H27.4209L28.8166 7.88833L30.4352 3.44458Z" fill="black"/>
<path d="M39.9941 3.44458H35.1369V4.97922H39.9941V3.44458Z" fill="black"/>
<path d="M70.9374 4.46834C70.4117 4.46834 69.9659 4.64637 69.6001 5.00252C69.2343 5.3584 69.0498 5.8447 69.0498 6.46017C69.0498 7.08374 69.2358 7.57621 69.6063 7.93655C69.9782 8.29658 70.4302 8.47793 70.9651 8.47793C71.4446 8.47793 71.8274 8.35617 72.1148 8.11454C72.3992 7.87291 72.5898 7.59808 72.685 7.29083L74.1207 7.77823C73.9332 8.34986 73.5689 8.84228 73.0294 9.25558C72.4883 9.66907 71.8012 9.87497 70.9651 9.87497C69.9614 9.87497 69.1175 9.55017 68.4381 8.89957C67.7572 8.24868 67.416 7.43561 67.416 6.46017C67.416 5.47514 67.7526 4.66202 68.4227 4.02077C69.0945 3.37822 69.9275 3.05762 70.9236 3.05762C71.7782 3.05762 72.476 3.26485 73.0156 3.67815C73.555 4.09044 73.904 4.58705 74.0638 5.16803L72.6005 5.66883C72.5052 5.33455 72.3254 5.05148 72.0579 4.81818C71.7889 4.58494 71.4169 4.46834 70.9374 4.46834Z" fill="black"/>
<path d="M78.5163 3.05762C79.5493 3.05762 80.4008 3.37822 81.0725 4.02077C81.7426 4.66202 82.0793 5.47514 82.0793 6.46017C82.0793 7.44409 81.7426 8.26033 81.0725 8.90592C80.4008 9.55233 79.5493 9.87497 78.5163 9.87497C77.4926 9.87497 76.6457 9.55233 75.974 8.90592C75.3023 8.26033 74.9656 7.44409 74.9656 6.46017C74.9656 5.47514 75.3023 4.66202 75.974 4.02077C76.6457 3.37822 77.4926 3.05762 78.5163 3.05762ZM77.1498 7.96345C77.5249 8.32393 77.9814 8.50381 78.5163 8.50381C79.0512 8.50381 79.5047 8.32393 79.8751 7.96345C80.2471 7.60222 80.4315 7.10142 80.4315 6.46017C80.4315 5.82697 80.2471 5.33252 79.8751 4.97637C79.5047 4.62044 79.0512 4.44232 78.5163 4.44232C77.9814 4.44232 77.528 4.62044 77.1576 4.97637C76.7855 5.33252 76.5996 5.82697 76.5996 6.46017C76.5996 7.09309 76.784 7.59389 77.1498 7.96345Z" fill="black"/>
<path d="M85.2913 0.132812H83.6586V9.67913H85.2913V0.132812Z" fill="black"/>
<path d="M89.038 0.132812H87.4037V9.67913H89.038V0.132812Z" fill="black"/>
<path d="M95.8421 7.43561L97.2224 7.84487C97.0256 8.43303 96.6567 8.91941 96.1172 9.30136C95.5761 9.68358 94.9121 9.87497 94.1236 9.87497C93.1475 9.87497 92.319 9.5627 91.6381 8.93898C90.9572 8.31458 90.6175 7.47936 90.6175 6.433C90.6175 5.44908 90.9479 4.6402 91.6104 4.00714C92.2714 3.37408 93.0538 3.05762 93.956 3.05762C95.0058 3.05762 95.8282 3.35851 96.4199 3.96136C97.0118 4.56302 97.3069 5.37424 97.3069 6.39339C97.3069 6.66611 97.2931 6.82857 97.2654 6.88167H92.2499C92.2698 7.36492 92.4589 7.7657 92.8216 8.08216C93.1829 8.39863 93.6179 8.55709 94.1236 8.55709C95.0058 8.55709 95.5791 8.18306 95.8421 7.43561ZM92.2929 5.76135H95.6591C95.6407 5.35656 95.4885 5.01809 95.2011 4.74538C94.9152 4.47354 94.5048 4.33723 93.9683 4.33723C93.481 4.33723 93.086 4.47971 92.7848 4.76495C92.485 5.05148 92.3221 5.38346 92.2929 5.76135Z" fill="black"/>
<path d="M101.846 4.46834C101.321 4.46834 100.875 4.64637 100.509 5.00252C100.142 5.3584 99.9589 5.8447 99.9589 6.46017C99.9589 7.08374 100.143 7.57621 100.515 7.93655C100.886 8.29658 101.339 8.47793 101.874 8.47793C102.354 8.47793 102.736 8.35617 103.022 8.11454C103.308 7.87291 103.499 7.59808 103.593 7.29083L105.028 7.77823C104.841 8.34986 104.478 8.84228 103.937 9.25558C103.397 9.66907 102.709 9.87497 101.874 9.87497C100.87 9.87497 100.027 9.55017 99.3456 8.89957C98.6663 8.24868 98.325 7.43561 98.325 6.46017C98.325 5.47514 98.6601 4.66202 99.3318 4.02077C100.004 3.37822 100.837 3.05762 101.831 3.05762C102.686 3.05762 103.384 3.26485 103.923 3.67815C104.463 4.09044 104.813 4.58705 104.973 5.16803L103.508 5.66883C103.414 5.33455 103.233 5.05148 102.965 4.81818C102.698 4.58494 102.324 4.46834 101.846 4.46834Z" fill="black"/>
<path d="M108.542 1.28621H106.91V9.73822H108.542V1.28621Z" fill="black"/>
<path d="M113.28 3.25725H105.678V4.78668H113.28V3.25725Z" fill="black"/>
<path d="M111.715 1.7013C111.507 1.50756 111.404 1.27432 111.404 1.00262C111.404 0.729904 111.507 0.494447 111.715 0.296751C111.921 0.0988709 112.17 0 112.46 0C112.762 0 113.015 0.0968447 113.221 0.290396C113.427 0.483072 113.532 0.720417 113.532 1.00262C113.532 1.27432 113.427 1.50756 113.221 1.7013C113.015 1.89485 112.762 1.99068 112.46 1.99068C112.17 1.99068 111.921 1.89485 111.715 1.7013ZM113.278 9.67857H111.658V3.25666H113.278V9.67857Z" fill="black"/>
<path d="M121.583 3.25725L118.893 9.67916H117.259L114.469 3.25725H116.274L118.089 7.84675L119.864 3.25725H121.583Z" fill="black"/>
<path d="M127.264 7.43561L128.644 7.84487C128.447 8.43303 128.08 8.91941 127.539 9.30136C126.999 9.68358 126.334 9.87497 125.547 9.87497C124.569 9.87497 123.741 9.5627 123.061 8.93898C122.38 8.31458 122.039 7.47936 122.039 6.433C122.039 5.44908 122.37 4.6402 123.032 4.00714C123.695 3.37408 124.477 3.05762 125.378 3.05762C126.429 3.05762 127.251 3.35851 127.842 3.96136C128.433 4.56302 128.729 5.37424 128.729 6.39339C128.729 6.66611 128.715 6.82857 128.687 6.88167H123.673C123.693 7.36492 123.882 7.7657 124.243 8.08216C124.605 8.39863 125.04 8.55709 125.547 8.55709C126.429 8.55709 127.002 8.18306 127.264 7.43561ZM123.716 5.76135H127.082C127.062 5.35656 126.909 5.01809 126.624 4.74538C126.337 4.47354 125.926 4.33723 125.392 4.33723C124.903 4.33723 124.508 4.47971 124.208 4.76495C123.908 5.05148 123.744 5.38346 123.716 5.76135Z" fill="black"/>
</svg>
