<svg width="742" height="220" viewBox="0 0 742 220" fill="none" xmlns="http://www.w3.org/2000/svg">
<path d="M146.814 64.4459H131.593C131.143 64.4803 130.8 64.8235 130.8 65.2629V65.3144C130.45 74.9329 122.544 82.6222 112.703 82.6222V155.54H146.604V116.719C147.027 107.118 154.949 99.4356 164.674 99.4356C166.483 99.4356 169.274 99.7995 171.612 100.802C171.612 100.802 171.9 100.929 172.058 100.929C172.497 100.929 172.878 100.551 172.878 100.047V90.5758C172.878 76.1481 161.176 64.4459 146.814 64.4459Z" fill="black"/>
<path d="M73.2165 64.4459H88.3479C88.7976 64.4803 89.2129 64.8235 89.2129 65.2629V65.3144C89.594 74.9329 97.4206 82.6222 107.207 82.6222V155.54H73.34V116.719H73.2885C72.9865 107.118 65.0329 99.4356 55.2977 99.4356C53.4543 99.4356 50.7459 99.7995 48.3876 100.802C48.3876 100.802 48.1096 100.929 47.907 100.929C47.4608 100.929 47.1141 100.551 47.1141 100.047V90.5758C47.1141 76.1481 58.7716 64.4459 73.2165 64.4459Z" fill="black"/>
<path d="M109.995 24.0405C62.599 24.0405 24.0256 62.6021 24.0256 109.997C24.0256 157.394 62.599 195.956 109.995 195.956C157.373 195.956 195.936 157.394 195.936 109.997C195.936 62.6021 157.373 24.0405 109.995 24.0405ZM109.995 220C49.3316 220 0 170.649 0 109.997C0 49.334 49.3316 0 109.995 0C170.637 0 219.996 49.334 219.996 109.997C219.996 170.649 170.637 220 109.995 220Z" fill="black"/>
<path d="M323.389 107.602C320.025 110.873 315.13 112.504 308.701 112.504H301.471V75.2383H308.701C315.13 75.2383 320.025 76.8689 323.389 80.1334C326.767 83.3979 328.452 87.9806 328.452 93.8677C328.452 99.7617 326.767 104.331 323.389 107.602ZM340.985 63.9927C332.726 56.712 321.978 53.0664 308.701 53.0664H276.567V168.402H301.471V134.672H308.701C321.978 134.672 332.726 131.027 340.985 123.749C349.22 116.469 353.353 106.504 353.353 93.8677C353.353 81.2353 349.22 71.2735 340.985 63.9927Z" fill="black"/>
<path d="M348.531 168.4H373.641L378.45 155.991L387.032 133.86L396.743 108.819L405.363 130.863L414.25 153.626L414.765 154.958L416.444 159.228L420.01 168.4H444.798L396.493 49.175L348.531 168.4Z" fill="black"/>
<path d="M507.088 72.8217C511.032 72.8217 514.884 73.443 518.642 74.6719C522.381 75.8974 524.825 76.8963 525.947 77.6481C527.073 78.3895 527.962 79.0383 528.604 79.567L541.123 60.1378L537.114 57.728C534.536 56.1146 530.396 54.5425 524.67 52.984C518.931 51.4393 512.965 50.6566 506.745 50.6566C489.087 50.6566 474.597 56.3824 463.307 67.8442C451.993 79.3061 446.353 93.5999 446.353 110.733C446.353 127.869 451.993 142.166 463.307 153.628C474.597 165.079 489.087 170.812 506.745 170.812C512.965 170.812 519.061 169.923 525.068 168.162C531.059 166.391 535.01 165.004 536.863 163.981C538.751 162.968 540.159 162.076 541.123 161.334L528.604 141.898L526.194 143.663C524.578 144.73 521.989 145.836 518.406 146.955C514.811 148.081 511.032 148.64 507.088 148.64C496.573 148.64 487.988 145.104 481.294 138.043C474.597 130.979 471.257 121.872 471.257 110.733C471.257 99.5969 474.597 90.4967 481.294 83.4253C487.988 76.3574 496.573 72.8217 507.088 72.8217Z" fill="black"/>
<path d="M552.001 75.2349H572.739V168.399H597.615V75.2349H618.352V53.063H552.001V75.2349Z" fill="black"/>
<path d="M706.69 138.043C699.952 145.104 691.315 148.64 680.838 148.64C670.327 148.64 661.725 145.104 654.966 138.043C648.224 130.979 644.85 121.872 644.85 110.733C644.85 99.5969 648.224 90.4967 654.966 83.4253C661.725 76.3574 670.327 72.8217 680.838 72.8217C691.315 72.8217 699.952 76.3574 706.69 83.4253C713.446 90.4967 716.81 99.5969 716.81 110.733C716.81 121.872 713.446 130.979 706.69 138.043ZM724.602 68.088C713.202 56.4716 698.616 50.6566 680.838 50.6566C663.06 50.6566 648.468 56.4716 637.061 68.088C625.647 79.7043 619.945 93.9192 619.945 110.733C619.945 127.549 625.647 141.764 637.061 153.381C648.468 165.004 663.06 170.812 680.838 170.812C698.616 170.812 713.202 165.004 724.602 153.381C736.006 141.764 741.711 127.549 741.711 110.733C741.711 93.9192 736.006 79.7043 724.602 68.088Z" fill="black"/>
</svg>
